# xmcd
#
# Track frame offsets:
#	150
#	17683
#	36730
#	53568
#	71090
#	83853
#	100226
#	115377
#	132046
#	148405
#	165044
#	181688
#	198550
#	213466
#	230455
#	247061
#	262853
#	280308
#	294315
#
# Disc length: 4153 seconds
# Revision: 0
# Processed by: cddbd v1.5.2PL0 Copyright (c) Steve Scherf et al.
# Submitted via: dBpowerAMP V12.0
#
DISCID=17103713
DTITLE=Various Artist - Country Radio March 2012
DYEAR=2012
DGENRE=Country
TTITLE0=Dean Brody - Candian Girls
TTITLE1=Rascal Flatts - Banjo
TTITLE2=Zac Brown Band - No Hurry
TTITLE3=Jessie Farrell - Everything To Me
TTITLE4=One More Girl - Maybe
TTITLE5=Aaron Pritchett - I Want To Be In It With You
TTITLE6=Chad Brownlee - Smoke In The Rain
TTITLE7=Alan Jackson - So You Don't Have To Love Me Anymore (Explicit Lyrics)
TTITLE8=Jason Aldean - Fly Over States
TTITLE9=Jimmy Rankin - The Hurtin Part
TTITLE10=High Valley - Have I Told You I Love You Lately
TTITLE11=Eric Church - Springsteen
TTITLE12=Josh Turner - Time Is Love
TTITLE13=Kellie Pickler - 100 Proof
TTITLE14=Jana Kramer - Why YA Wanna
TTITLE15=Phil Vassar - Don't Miss Your Life
TTITLE16=Jim Cuddy - Regular Days
TTITLE17=Love and Theft - Angel Eyes
TTITLE18=Lori McKenna - You Get A Love Song
EXTD=
EXTT0=
EXTT1=
EXTT2=
EXTT3=
EXTT4=
EXTT5=
EXTT6=
EXTT7=
EXTT8=
EXTT9=
EXTT10=
EXTT11=
EXTT12=
EXTT13=
EXTT14=
EXTT15=
EXTT16=
EXTT17=
EXTT18=
PLAYORDER=
